<?xml version="1.0" encoding="UTF-8"?>
<svg id="Layer_1" data-name="Layer 1" xmlns="http://www.w3.org/2000/svg" viewBox="0 0 466.17 477.95">
  <defs>
    <style>
      .cls-1 {
        fill: #501a34;
      }

      .cls-2 {
        fill: #d93f86;
      }

      .cls-3 {
        fill: #d93e88;
      }

      .cls-4 {
        fill: #da3e87;
      }

      .cls-5 {
        fill: #070b0c;
      }

      .cls-6 {
        fill: #d93d87;
      }

      .cls-7 {
        fill: #0c161c;
      }

      .cls-8 {
        fill: #da3f88;
      }

      .cls-9 {
        fill: #fa5ab8;
      }

      .cls-10 {
        fill: #d83f86;
      }

      .cls-11 {
        fill: #354246;
      }

      .cls-12 {
        fill: #0c191e;
      }

      .cls-13 {
        fill: #0b151b;
      }

      .cls-14 {
        fill: #d83e86;
      }

      .cls-15 {
        fill: #f95ab3;
      }

      .cls-16 {
        fill: #0c181d;
      }

      .cls-17 {
        fill: #d83e87;
      }

      .cls-18 {
        fill: #0c181e;
      }

      .cls-19 {
        fill: #da3e88;
      }

      .cls-20 {
        fill: #0c1a1d;
      }

      .cls-21 {
        fill: #d93e87;
      }

      .cls-22 {
        fill: #364347;
      }

      .cls-23 {
        fill: #fa5dbb;
      }

      .cls-24 {
        fill: #da3f89;
      }

      .cls-25 {
        fill: #0b181d;
      }

      .cls-26 {
        fill: #0b171d;
      }

      .cls-27 {
        fill: #0b161c;
      }

      .cls-28 {
        fill: #4e1f38;
      }

      .cls-29 {
        fill: #040506;
      }
    </style>
  </defs>
  <g id="Generative_Object" data-name="Generative Object">
    <path class="cls-20" d="M173.68,476.91c.6-1.12,5.04-.11,4.24-1.47-3.31-5.7-13.99-22.27-16.63-22.11-3.93.24-7.46-.27-11.25.84l11.92,11.31,10.95,11.71-87.64-.49,3.46-17.41-12.23,6.44c-3.23,1.7-6.5,2.36-10.23,2.61-15.26.99-30.15.89-45.42.1l-20.85-1.08,47.29-38.16c17.79-14.35,11.85-10.38,17.42-27.05l9.15-27.36,3.16-9.27c-15.56,13.28-29.52,27.34-43.99,42.12,4.05-29.69,11.66-57.62,23.32-83.94,3.17-7.14,6.65-13.27,11.13-20.32-13.26,6.34-25.13,14.02-37.12,22.24l-18.92,12.98c8.85-24.32,20.44-45.86,34.15-66.67,6.96-9.94,13.77-19.12,22.1-28.41-14.44,1.62-27.84,4.33-41.79,6.86l-24.52,4.44c19.9-21.54,41.88-41.14,65.83-56.86,7.54-4.94,15.04-8.87,23.58-12-25.79-6.33-50.7-11.3-77.04-14.64,2.51-2.4,5.59-3.29,8.54-4.87,18.69-8.94,37.61-16.59,57.47-23.28,13.14-4.43,25.66-7.79,39.69-10.27-20.04-10.81-39.66-20.94-60.57-28.83l-21.55-8.13c2.61-1.32,5.2-1.39,7.64-1.76.87,1.31,2.66.42,3.88.28l16.93-2,7.63-.68,8.91-.64,38.22.04,10.16.59,6.01.6,6.37.46,5.42.64,5,.35c.58.04,1.09.64,1.89.49.51-.09.92-.09.91-.93l8.34,1.29c-24.31-19.65-48.6-38.26-73.98-57.18,25.36,1.43,49.39,5.95,73.24,12,17.06,4.32,32.92,9.97,49.39,17.4-9.22-10-16.98-19.72-24.87-30.13l-23.8-31.41c24.88,8.02,53.5,21.9,75.79,35.59l22.96,14.1c2.99,1.84,5.44,4.07,8.99,5.69l-31.61-47.05-9.02-13.66c20.55,10.29,39.49,22.66,58.13,36.34,12.15,8.91,22.65,18.58,34.57,28.77l-5.28-15.85-12.59-33.43,10.94,9.35c17.21,16.31,33.07,33.46,47.64,52.22,10.46,13.47,18.44,27.91,24.37,43.62l5.84,15.47c6.42,19.51,11.05,39.06,14.59,59.53l15.37,16.2c5.29,5.57,9.28,11.61,13.25,18.44-.68,3.21-2.68,6.07-5.07,9.08l8.64,9.62c6,6.69,23.83,26.74,24.01,31.4.36,8.85-12.51,22.19-19.6,29.73-8.72,9.28-17.39,18.03-27.41,25.86-9.92,7.75-23.02,6.33-35.44,3.46l-20.04-4.63-12.81,35.91,2.5,10.9,14.87,61.27,19.81,1.79c3.76.49,7.23,1.85,9.89,4.71l21.31,28.13-80.51.08-163.86-.61-1.2-.43ZM351.22,136.58l10.22,20.96,8.71,17.74-3.64-16.03c-6.04-26.58-22.21-50.35-40.66-71.11-7.78-8.75-15.21-17.08-23.98-24.92l-15.43-13.8-11.7-10.94c.59,2.03,1.77,3.5,2.9,5.19l13.24,19.89,38.43,58.08,11.26,16.97,13.39,20.43c-1.29-7.74-4.33-14.35-6.69-21.56l-4.04-12.31c-.21-.65.49-1.54.87-1.62.29-.07,1.03.52,1.13.84,1.42,4.31,3.87,7.84,5.98,12.18ZM328.65,148.74c3.02,3.44,5.74,6.55,8.4,10.21-5.46-14.64-16.05-28.42-25.71-41.09l-11.7-13.67c-5.85-6.83-12.09-12.4-19.04-18.04l-26.05-21.14c-8.83-7.16-18.11-12.35-28.41-16.53-3.89-1.58-7.62-3.43-11.36-5.53-2.77-.9-4.83-2.39-7.75-3.59l9.34,9.98c7.25,7.74,13.97,15.42,21.02,23.3l19.91,22.25,31.47,31.94,19.11,19.1,10.03,9.67,7.24,6.07c-5.48-8.75-11.82-16.4-17.98-24.64,1.59-2.67,3.62-4.36,5.66-6.32l15.83,18.03ZM286.12,142.54c-1.02-2.03-2.57-3.38-4.16-5.03l-15.88-16.58-14.82-11.64-15.23-12.22c-1.69.66-2.21,3.48-3.46,3.15-.26-.07-1.06-.66-.96-1,.45-1.43,1.66-1.97,2.81-3.18l-8.43-6.47c-21.45-11.12-43.83-19.78-67.11-26.51l-14.06-3.11,23.16,19.19c11.99,9.94,27.25,23.17,41.23,27.86,6.23,2.09,12.1,4.52,17.78,8.16l31.48,20.2-8.27-8.47c-.28-.28-1.5-.57-1.38-1.21,1.6-2.89,4.15-4.73,6.61-7.27l4.88,4.35c4.35,4.9,9.49,8.46,14.8,12.14l11.03,7.64ZM340.73,73.04l3.74,8.86,18.39,37.14c11.06,22.34,20.21,45.02,28.48,68.53l1.73,7.85c.46-2.57.16-4.82-.25-7.52-2.78-18.08-6.66-35.5-12.58-52.57l-8.67-20.46c-3-7.08-5.94-14.12-10.56-20.28l-24.05-32.12,3.79,10.57ZM109.52,104.08c-4.32-.1-8.67.7-13.57,1.1l53.42,23.97,26.48,12.21,6.23-.99c3.25-.52,6.09-2.34,7.81-5.37l10.7,4.23,15.75,6.07,20.92,7.45c-5.29-4.15-10.83-7.33-16.72-9.71-.1-.24-.35-.52-.69-.69l-20.95-10.33-7.34-3.31c.37-4.31-1.2-7.9-4.34-10.44-.99-.8-1.99-2.43-3.43-2.9-15.08-4.95-30.58-8.61-46.57-11.12l-8.38-.69-15.65-.12c-1.13,0-2.49.79-3.67.64ZM214.01,174.76c1.43-1.57,3.18-3.7,3.61-6.03.73-3.92-2.57-9.05-6.59-11.84-2.29-.72-6.22-1.01-8.35.12-3.49,1.85-6.16,5.09-7.85,8.58l-17.86-2.35c-2.19-.3-4.47-.55-6.45-.73l-6.61-.6-6.42-.49-7.07-.62-6.75-.54-7-.33-4.57-6.81c-2.94-2.52-7.88-4.17-11.55-3.53l-20.11,3.5-17.82,4.1-20.19,5.39c20.44,3.03,40.1,7.93,60.09,13.1,3.35.69,7.82-2.02,10.07-3.7,3.68-5.66,1.71-6.26,5.91-6.05l9.67.5,8.75.62,7,.49,7.13.59c1.84.15,3.91.42,5.95.77l18.26,3.08c1.25,4.76,4.97,7.19,9.4,8.08,1.6.32,2.78-.52,4.37-.78,2.72-.45,4.49-2.16,4.99-4.51ZM290.51,463.46c-.01-.76-.06-1.22.45-1.66,8.69,5.06,16.35,15.19,17.71,14.93,1.13-.21,1.83-.66,2.89-1.49.73-.36,2.47.54,3.8-.5-.45-.23-1.38.23-2.14-.9l3.78-.96-8.82-10.96c-.85.55-1.46-.37-1.25-.94-1.23-1.9-3.68-2.46-5.46-3.55-3.11-1.9-5.99-2.04-9.39-2.46-3.05-.38-6,.02-8.91-.03l-1.4-.02c-.33,0-.46.7-.37,1.06l-4.41-2.32-12.49-44.19c-.43-1.52-.69-2.61.12-4.06l13.8-24.49c-.73-.74-.26-1.56.8-1.37-.86-.74-.3-1.25.44-1.07l4.54-10.7c2.62-6.16,5.25-12.03,8.74-17.86l-3.79-7.41c-.96.28-1.13-.64-.39-1.06-1.81-3.32-2.9-6.34-3.67-9.81-2.24-10.09-4.73-19.84-8.74-29.55l5.12,4.57,15.39,13.78,17.77,14.62c.31-3.22-1.52-4.97-2.43-7.75-.73.39-1.54-.48-.58-1.13l-4.09-9.55c-.7.39-1.03-.49-.26-.69l-7.83-14.45c-6.89-11.34-12.22-22.89-15.74-35.89-1.12.21-1.66-.74-.55-1.33-.45-1.88-1.53-3.43-1.31-6.12l10.3,9.25c6.54,5.88,13.17,11.5,20.61,15.32l7.96,3.31c-.04.93.58.89,1.18.51l15.08,5.86,3.67,2.06c11.78,5.03,22.68,11.64,33.51,18.81l13.54,8.98,9.82,6.97c2.82,1.25,6.55.17,9.86-.21,5.36-.62,10.69-5.12,11.5-10.52.31-2.02-3.68-2.69-4.95-2.69-7.49-.4-14.45,1.63-21.01,5.23l-5.35-5.27,5.81-2.61c-.43-.65.36-1.47,1-.65l5.16-1.56c-.46-.99.79-1.53,1.15-.42l5.82-1.26c-.96-.87.72-1.32.23-.02,8.28-1.16,16.52-.94,25.34-.96,5.38-3.32,7.49-6.36,5.67-12.3-1.52-4.94-9.08-6.58-13.7-12.19l8.09-2.61c-.4-1.08.78-1.5,1.23-.45,5.66-2.63,11.83-2.98,18.31-2.26l-43.84-47.28c.17-.12.29-.3.34-.42l4.34,3.95,4.17-2.01c1.48-.72,2.86-1.32,4.89-.49,1.35-3.86.22-7.62-2.46-10.51l-5.67-6.12c-2.84-3.06-5.69-5.95-9.35-7.64,1.32,5.56,2.18,10.55,2.02,16.23l-10.22-10.69c-3.13-3.28-6.3-6.06-10.39-8.27l-15.47-8.37-18.93-9.22c-.7-.45-1.65-.74-2.46-1.07l-4.95-2.03c.45-.64-.24-1.36-.79-.46l-.49-1.1c-.2-.45-.98.3-1.21.33-1.23-.97-3.35-1.53-4.52-2.08l-13.05-6.13c-1.11-.52-1.92-1.02-2.88-1.42l-9.01-3.75-6.49,7.11-11.24-11.12c-6.66-6.59-12.44-15-22.79-13.88-8.74.95-17.16,5.25-22.87,12.31-7.25,8.95-4.95,24.73,3.34,33.89,7.14,7.88,16.47,12.76,27.2,15.22-4.15,2.97-7.26,6.89-11.03,10.54-7,6.78-12.27,14.39-13.99,24.18-.63,3.6-.17,6.89,1.74,10.08l1.15,3.38c2.67,7.85,5.61,15.23,6.99,23.8-1.77-.26-3.39-1.14-4.36-2.34-9.12-11.31-15.11-27.12-23.15-34.14-2.88-2.51-6.86-.04-9.22,1.98l-14.02,11.99c-22.14,18.93-37.23,34.66-56.44,56.42l-6.08,6.89h29.16s24.62-29.34,24.62-29.34l6.73-7.14,17.49,1.83.07,6.56-7.16-.88c.65,1.06-1.27,1.07-.3-.01l-5.83-.66-16.52,16.68c-.93.94-3.47,2.91-2.67,4.54l19,21.37,10.09,11.57.09,12.6c.08,11,.52,21.63,1.62,32.54.34,3.38,0,6.35,1.46,9.37,5.98,12.34,12.66,23.86,19.94,35.58l16.7,26.89,28.26.05c-.71-2.12-1.77-3.13-2.77-4.33ZM121.28,234.76c1.57,2.9,6.49,4.01,9.5,5.75,3.31-1,5.81-.93,8.74-.26l6.03-5.61c2.59-2.42,2.92-6.29,3.58-9.77l36.97-12.48,20.12-7.41c5.23-1.93,9.85-4.11,15.57-5.68l-9.93-1.15c-3.7-.43-6.38,1.07-9.78,2.09l-5.54,1.66-4.04-11.16c-1.45.7-2.42.68-3.77.7l3.18,13.03-5.99,2.01-5.81-11.78-5.8,2.37,5.11,10.78-31.98,10.43-4.31-5.42c-4.36-1.61-9.44-3.52-14.49-2.69-2.89,1.26-6.32,3.92-8.79,6.14-2.2,8.38-2.66,10.82,1.46,18.45ZM53.22,231.63l28.88-7.06c13.34-12.65,27.96-22.95,43.93-31.93-14.07,2.22-26.53,6.99-38.94,13.41-15.23,7.69-29.21,16.75-42.96,26.84,3.41-.04,6.19-.56,9.09-1.27ZM183.17,257.55c5.69-1.63,8.62-8.13,7.14-14.11l15.82-8.86c5.39-3.02,10.51-6.05,15.32-9.94l9.28-7.51c-15.37,6.47-29.17,13.8-43.53,20.97-1.13.56-1.79-.02-2.69-.39-3.97-1.62-9.74-.53-12.44,3.12-1.42,1.91-3.2,5.18-2.45,7.17l2.42,6.38c2.35,3.56,7.36,4.24,11.13,3.16ZM75.83,282.36c7.84-4.77,14.6-10.61,22.66-14.87,2.77-1.47,5.19-2.73,7.2-5.25l9.82-12.34-14.26,9.12c-7.62,4.88-15.29,9.05-24.05,12.8l13.88-21.31,3.07-5.18-4.03,3.09c-16.32,12.51-25.57,23.65-37.5,39.98l-6.88,9.43c-1.16,1.58-2.48,2.57-3.6,4.6l10.67-6.03,23.02-14.02ZM74.72,338.63c-5.05,6.28-9.91,12.1-13.92,19.28,5.98-4.46,10.78-9.71,15.83-15.15l17.84-19.2c1.48-1.59,2.75-1.77,4.7-2.07,6.78-1.02,10.98-7.09,9.4-13.63l19.4-24.45c5.1-6.42,9.8-12.61,15.28-18.28l-6.12,4.98-8.41,7.36c-4.77,4.17-8.99,8.48-13.13,13.24l-10.57,12.15c-3.29-3.44-12.18-2.86-14.98,1.46-3.23,4.99-3.44,10.2.63,14.48l-15.98,19.84ZM128.35,319.53l12.66-14.62c3.8-4.38,6.89-8.72,9.12-14.1l-8.96,7-17.19,20.34c1.1.88,3.14,2.01,4.36,1.38ZM179.62,404.95l-33.18,38.17c5.6.09,8.78-3.5,12.61-6.25l27.11-24.96c2.45-2.26,3.13-4.16,3.52-7.33l3.75-30.56-6.07-8.74-15.81-19.71-18.72-2.46c-3.76-.5-7.46-.86-11.21-.45-2.35-.51-3.87.4-5.15,2.19l-29.11,40.92c-.94,1.32-1.98,1.97-2.5,3.44,4.62-2.72,7.68-6.15,11.35-9.71,8.94-8.67,17.54-17.24,24.95-27.26,1.8-.61,3.56-.39,5.49-.13l19.3,2.53,16.64,21c1.48,1.87.96,4.27.65,6.23l-3.63,23.11ZM310.01,450l11.67,14.66,14.33.61-30.9-45.69-9.69-13.72-15.22,12.27,9.53,25.86,12.09,1.19c3.36.33,6.11,2.22,8.18,4.83ZM243.14,467.09l-14.22-24.27-22.99-.56,21.1,24.34,16.11.49ZM197.84,476.76c-.83-4.91-.2-10.72-2.8-15.17-3.73-6.39-10.98-8.99-14.6-14.03-3.09-1.09-6.49-.83-10.04.19,2.58,2.38,4.67,4.41,6.75,7.02l19.05,21.96c.26,0,.59-.33.75-.27s.25.58.88.29ZM388.17,458.16c3.14,4.97,7.14,8.85,11.17,12.45-2.1-4.53-7.61-9.15-11.17-12.45Z"/>
    <path class="cls-11" d="M173.68,476.91c.02.26-.11.39-.34.5-.16.08-.37.21-.43-.23l-10.95-11.71-11.92-11.31c3.79-1.1,7.32-.59,11.25-.84,2.64-.16,13.32,16.4,16.63,22.11.79,1.37-3.64.36-4.24,1.47Z"/>
    <path class="cls-29" d="M156.31,93.37c0,.84-.4.84-.91.93-.8.14-1.31-.45-1.89-.49l-5-.35-5.42-.64-6.37-.46-6.01-.6-10.16-.59-38.22-.04-8.91.64-7.63.68-16.93,2c-1.22.14-3.01,1.03-3.88-.28l11.27-1.71c2.19-.33,4.45-.54,6.44-.73l6.08-.59,6.47-.47,11.02-.61h32.62s10.16.57,10.16.57l7.11.57,6.44.45,13.73,1.72Z"/>
    <path class="cls-22" d="M281.41,455.99c3.5,1.84,6.68,4.54,9.1,7.47.99,1.2,2.06,2.21,2.77,4.33l-28.26-.05-16.7-26.89c-7.28-11.72-13.96-23.23-19.94-35.58-1.46-3.02-1.12-5.99-1.46-9.37-1.1-10.91-1.54-21.54-1.62-32.54l-.09-12.6-10.09-11.57-19-21.37c-.79-1.63,1.74-3.6,2.67-4.54l16.52-16.68,5.83.66c-.98,1.08.94,1.08.3.01l7.16.88-.07-6.56-17.49-1.83-6.73,7.14-24.62,29.33h-29.16s6.08-6.88,6.08-6.88c19.21-21.76,34.3-37.49,56.44-56.42l14.02-11.99c2.36-2.02,6.34-4.49,9.22-1.98,8.04,7.03,14.03,22.84,23.15,34.14.97,1.2,2.59,2.08,4.36,2.34-1.38-8.57-4.31-15.95-6.99-23.8l-1.15-3.38c-1.91-3.19-2.37-6.47-1.74-10.08,1.72-9.78,6.99-17.4,13.99-24.18,3.77-3.65,6.88-7.57,11.03-10.54-10.73-2.46-20.06-7.33-27.2-15.22-8.3-9.16-10.6-24.94-3.34-33.89,5.72-7.06,14.14-11.36,22.87-12.31,10.35-1.12,16.13,7.29,22.79,13.88l11.24,11.12,6.49-7.11,9.01,3.75c.96.4,1.77.9,2.88,1.42l13.05,6.13c1.17.55,3.29,1.11,4.52,2.08.23-.03,1.01-.78,1.21-.33l.49,1.1c.55-.9,1.24-.18.79.46l4.95,2.03c.81.33,1.76.62,2.46,1.07l18.93,9.22,15.47,8.37c4.09,2.21,7.25,4.99,10.39,8.27l10.22,10.69c.15-5.68-.7-10.67-2.02-16.23,3.66,1.69,6.51,4.57,9.35,7.64l5.67,6.12c2.67,2.88,3.81,6.65,2.46,10.51-2.03-.83-3.41-.23-4.89.49l-4.17,2.01-4.34-3.95c-.05.11-.17.3-.34.42l43.84,47.28c-6.48-.72-12.65-.37-18.31,2.26-.45-1.05-1.63-.63-1.23.45l-8.09,2.61c4.62,5.61,12.18,7.26,13.7,12.19,1.82,5.93-.29,8.98-5.67,12.3-8.81.02-17.06-.2-25.34.96.49-1.3-1.19-.85-.23.02l-5.82,1.26c-.36-1.11-1.61-.57-1.15.42l-5.16,1.56c-.64-.82-1.43,0-1,.65l-5.81,2.61,5.35,5.27c6.56-3.61,13.52-5.63,21.01-5.23,1.27,0,5.26.67,4.95,2.69-.82,5.4-6.14,9.9-11.5,10.52-3.32.38-7.04,1.46-9.86.21l-9.82-6.97-13.54-8.98c-10.83-7.18-21.73-13.79-33.51-18.81l-3.67-2.06-15.08-5.86c-.59.38-1.22.42-1.18-.51l-7.96-3.31c-7.44-3.82-14.07-9.44-20.61-15.32l-10.3-9.25c-.23,2.69.85,4.24,1.31,6.12-1.11.58-.57,1.54.55,1.33,3.52,13,8.85,24.55,15.74,35.89l7.83,14.45c-.78.19-.45,1.07.26.69l4.09,9.55c-.96.65-.15,1.53.58,1.13.91,2.78,2.73,4.53,2.43,7.75l-17.77-14.62-15.39-13.78-5.12-4.57c4.01,9.71,6.5,19.46,8.74,29.55.77,3.48,1.86,6.5,3.67,9.81-.74.42-.57,1.33.39,1.06l3.79,7.41c-3.49,5.82-6.12,11.69-8.74,17.86l-4.54,10.7c-.73-.17-1.3.34-.44,1.07-1.06-.19-1.53.63-.8,1.37l-13.8,24.49c-.81,1.45-.55,2.54-.12,4.06l12.49,44.19,4.41,2.32ZM272.76,188.64l19.55,10.82,6.72-7.43-8.16-8.92c-6.77-7.39-13.67-14.29-21.66-20.37-5.57,1-12.06,8.75-13.04,12.4-3.3,12.31,5.7,23.43,16.85,27.5,2.31.85,4.49.97,6.58-.02-.13-1.81-1.41-2.84-2.15-4.36l-4.7-9.63ZM416.72,270c.33,1.25,1.46-.16.35-.51l-4.17-2.8-19.91-16.9c4.58-9.38,5.35-12.34,1.79-21.18-1.9-4.71-5.85-7.87-10.05-10.08,2.13,2.81,3.61,4.46,4.47,7.57.72,2.61-.83,8.58-4.24,8.98l-17.14-4.94c.62-1.12-.49-1.22-.66-1.09s-.07.48-1.02.63c.5-1.2-.7-1.71-1.17-.58l-12.73-3.92c-14.25-3.86-28.39-7.02-42.83-8,.46-1.51-1.44-.66-1.42-.06,4.31,2.94,10.23,5.32,13.32,9.76,2.38,7.54,4.69,18.01,10.36,23.44,5.3,5.07,11.63,8.53,17.98,11.97.97.52,2.63.11,3.88.58,4.45,1.4,9.37-.38,14.3-1.01-.25,2.97-1.55,6.41-3.49,8.58.21.14.16.84-.23.79-.28-.04-.93.31-.04.97-1.04.15-1.34.48-.94,1.39l-.68,2.72c5.96-6.81,12.45-12.94,19.31-18.86,1.24-1.07,2.25-.95,3.68-.35l15.12,6.31,16.17,6.59Z"/>
    <path class="cls-19" d="M328.65,148.74l-15.83-18.03c-2.04,1.96-4.08,3.65-5.66,6.32,6.16,8.24,12.5,15.89,17.98,24.64l-7.24-6.07-10.03-9.67-19.11-19.1-31.47-31.94-19.91-22.25c-7.04-7.87-13.76-15.55-21.02-23.3l-9.34-9.98c2.92,1.2,4.98,2.69,7.75,3.59,3.74,2.09,7.47,3.95,11.36,5.53,10.3,4.18,19.58,9.37,28.41,16.53l26.05,21.14c6.95,5.64,13.2,11.21,19.04,18.04l11.7,13.67c9.66,12.67,20.25,26.45,25.71,41.09-2.66-3.66-5.38-6.77-8.4-10.21ZM289.78,108.64c.43-1.36.39-2.93,1.99-3.39-.74-.84-.94-1.1-1.22-1.27-.45-.28-1.23.42-1.02.69.18.23.28.58,0,1.07l-.68,1.2c-.16.28-.63.29-.6-.28.04-.86-.78-.51-.9-.17-.06.17-.4.7-1.17.59.45-1.28,1.62-1.99,2.68-3.28-1.85.4-2.65,1.74-3.99,3.21-.63-1.13-.94-1.57-2.03-2.03l5.11-4.45-5.54-6.31c-4.98,4.14-2.19,7.74-5.82,7.14,1.88,3.44,4.36,5.38,6.71,7.96l6.68,7.35,13.15,15.12c2.11-1.62,4.01-3.37,5.48-6.29-2.44-1.95-4.11-4.44-6.06-6.81l-10.3-12.45c-1.46,2.92-1.27,5.29-1.2,8.31-2.04-1.56-1.99-3.64-1.27-5.9Z"/>
    <path class="cls-8" d="M286.12,142.54l-11.03-7.64c-5.31-3.68-10.45-7.24-14.8-12.14l-4.88-4.35c-2.46,2.54-5.01,4.39-6.61,7.27-.12.64,1.1.92,1.38,1.21l8.27,8.47-31.48-20.2c-5.68-3.64-11.55-6.07-17.78-8.16-13.97-4.69-29.23-17.92-41.23-27.86l-23.16-19.19,14.06,3.11c23.28,6.74,45.66,15.39,67.11,26.51l8.43,6.47c-1.15,1.21-2.36,1.75-2.81,3.18-.11.34.69.93.96,1,1.25.33,1.77-2.49,3.46-3.15l15.23,12.22,14.82,11.64,15.88,16.58c1.59,1.66,3.14,3,4.16,5.03ZM215.65,92.86c-2.18-2.43-5.3-3.51-8.48-5.12-1.23,3.62-2.77,6.48-4.12,9.73l26.99,11.23c-4.28-6.3-9.88-10.1-14.39-15.84ZM213.1,90.29c.51.28,1.17-.77.84-1.22-.24-.31-.86-.89-1.36-.73-.42.15-.09,1.6.52,1.95ZM245.44,122.33l5.19-6.49-6.05-5.24-5.37,6.53,6.22,5.19Z"/>
    <path class="cls-19" d="M351.22,136.58c-2.12-4.34-4.56-7.87-5.98-12.18-.11-.32-.85-.91-1.13-.84-.38.09-1.08.98-.87,1.62l4.04,12.31c2.36,7.21,5.4,13.82,6.69,21.56l-13.39-20.43-11.26-16.97-38.43-58.08-13.24-19.89c-1.13-1.69-2.3-3.16-2.9-5.19l11.7,10.94,15.43,13.8c8.77,7.84,16.2,16.17,23.98,24.92,18.46,20.75,34.62,44.52,40.66,71.11l3.64,16.03-8.71-17.74-10.22-20.96ZM335.41,122.99l6.41-5-4.6-5.32-6.28,4.86,4.46,5.46Z"/>
    <path class="cls-24" d="M109.52,104.08l22.83.54,5.54.62,4.84.69,17.41,3.56,17.58,4.68c3.79,1.01,6.85,2.26,9.61,5.13,2.43,2.53,3.7,5.14,2.67,8.78.29,1.77,3.38,2.25,4.68,2.89l17.11,8.34,5.91,3c1.1.56,1.97.55,2.84.72,5.89,2.38,11.44,5.56,16.72,9.71l-20.92-7.45-15.75-6.07-10.7-4.23c-1.72,3.03-4.57,4.85-7.81,5.37l-6.23.99-26.48-12.21-53.42-23.97c4.9-.41,9.25-1.21,13.57-1.1ZM183.4,122.53c-3.35-2.63-7.61-1.38-9.47,1.55-1.75,2.75-1.08,7.02,1.68,8.8s6.78,1.81,8.9-1.41c1.61-2.44,1.44-6.93-1.12-8.94Z"/>
    <path class="cls-22" d="M179.62,404.95l3.63-23.11c.31-1.96.83-4.35-.65-6.23l-16.64-21-19.3-2.53c-1.93-.25-3.7-.48-5.49.13-7.42,10.02-16.01,18.59-24.95,27.26-3.68,3.56-6.73,6.99-11.35,9.71.52-1.46,1.56-2.12,2.5-3.44l29.11-40.92c1.28-1.8,2.8-2.7,5.15-2.19,3.75-.41,7.45-.04,11.21.45l18.72,2.46,15.81,19.71,6.07,8.74-3.75,30.56c-.39,3.17-1.07,5.07-3.52,7.33l-27.11,24.96c-3.82,2.76-7,6.34-12.61,6.25l33.18-38.17Z"/>
    <path class="cls-21" d="M194.83,165.58c1.69-3.49,4.35-6.73,7.85-8.58,2.13-1.13,6.06-.83,8.35-.12,4.03,2.79,7.33,7.92,6.59,11.84-.44,2.33-2.18,4.46-3.61,6.03-1.8,1.97-3.1,3.47-5.99,4.08-5.51,1.17-10.84-1.94-12.39-7.72l-20.86-3.39c-2.24-.36-4.52-.54-6.5-.72l-6.64-.6-8.63-.5-9.3-.6c-2.65-.17-5.48-.17-8.18-.22l-3.42,6.21c-2.16,2.35-5.75,3.03-8.48,3.68-.72-.68-1.6-.41-2.37-.19-17.76-5.38-35.52-8.88-54.33-12.5,18.1-5.22,35.54-9.32,53.79-11.84,3.82-.53,8.24,1.06,10.83,3.22l4.69,6.74c.86.38,2.77.35,3.94.44l7.22.58,6.94.5,6,.63,6.38.49,6.51.62,5.3.45,12.02,1.69c1.24.17,3.66,1.1,4.29-.21ZM129.81,165.34c1.17-2.99.23-6.38-1.73-7.84-2.41-1.79-5.3-2.11-7.81-.57-2.16,1.32-3.2,4.14-2.8,7.03s2.97,4.74,5.36,5.11c2.76.43,5.79-.71,6.97-3.74ZM210.51,163.01c-1.7-1.47-4.64-2.22-6.62-1.5-3.38,1.22-4.99,4.3-4.41,7.66.51,2.95,2.82,5.3,6.45,5.74,2.66.32,5.05-2.04,5.95-4.07,1.2-2.7.81-5.95-1.38-7.83Z"/>
    <path class="cls-14" d="M121.28,234.76c-4.12-7.63-3.67-10.07-1.46-18.45,2.47-2.23,5.9-4.89,8.79-6.14,5.04-.83,10.13,1.09,14.49,2.69l4.31,5.42,31.98-10.43-5.11-10.78,5.8-2.37,5.81,11.78,5.99-2.01-3.18-13.03c1.36-.02,2.33,0,3.77-.7l4.04,11.16,5.54-1.66c3.4-1.02,6.09-2.51,9.78-2.09l9.93,1.15c-5.72,1.57-10.34,3.75-15.57,5.68l-20.12,7.41-36.97,12.48c-.66,3.48-.99,7.36-3.58,9.77l-6.03,5.61c-2.93-.67-5.43-.74-8.74.26-3.01-1.74-7.93-2.85-9.5-5.75ZM140.47,229.69c2.75-4.63.44-10.64-4.21-12.27s-10.13.79-10.9,5.96c-.63,4.26,1.69,8.07,5.18,9.31s7.94.35,9.93-2.99Z"/>
    <path class="cls-3" d="M75.83,282.36l-23.02,14.02-10.67,6.03c1.13-2.03,2.45-3.01,3.6-4.6l6.88-9.43c11.93-16.33,21.18-27.47,37.5-39.98l4.03-3.09-3.07,5.18-13.88,21.31c8.76-3.75,16.43-7.92,24.05-12.8l14.26-9.12-9.82,12.34c-2.01,2.52-4.43,3.79-7.2,5.25-8.06,4.26-14.83,10.1-22.66,14.87ZM91.03,268.12c.21.35,1,.46,1.41.27.33-.15.59-1,.08-1.68l-1.49,1.41Z"/>
    <path class="cls-4" d="M361,94.59c-.61.84-.04,1.09.36,1.78l4.74,8.19,10.48,23.8,3.42,8.47c5.15,15.75,9.05,31.68,11.53,48.49-8.17-21.97-16.53-43.44-26.98-64.59l-19.47-39.37-3.26-7.53c-.19-.46-.22-1.03-1.09-.78l-3.79-10.57,24.05,32.12Z"/>
    <path class="cls-6" d="M53.22,231.63c-2.91.71-5.68,1.23-9.09,1.27,13.75-10.09,27.73-19.15,42.96-26.84,12.41-6.42,24.87-11.2,38.94-13.41-15.97,8.98-30.59,19.28-43.93,31.93l-28.88,7.06Z"/>
    <path class="cls-17" d="M74.72,338.63l15.98-19.84c-4.08-4.28-3.87-9.49-.63-14.48,2.8-4.32,11.68-4.9,14.98-1.46l10.57-12.15c4.14-4.76,8.36-9.07,13.13-13.24l8.41-7.36,6.12-4.98c-5.48,5.67-10.19,11.86-15.28,18.28l-19.4,24.45c1.57,6.54-2.62,12.61-9.4,13.63-1.95.29-3.22.47-4.7,2.07l-17.84,19.2c-5.06,5.44-9.85,10.7-15.83,15.15,4.01-7.18,8.86-13.01,13.92-19.28ZM103.44,311.99c.58-3.95-2.23-6.4-5.42-6.41s-5.57,3.24-4.9,6.68c.54,2.79,2.85,4.12,5.5,4.02,2.03-.08,4.41-1.51,4.82-4.29Z"/>
    <path class="cls-10" d="M183.17,257.55c-3.77,1.08-8.78.4-11.13-3.16l-2.42-6.38c-.75-1.99,1.03-5.26,2.45-7.17,2.7-3.65,8.48-4.74,12.44-3.12.9.37,1.56.95,2.69.39,14.36-7.17,28.16-14.5,43.53-20.97l-9.28,7.51c-4.81,3.9-9.94,6.93-15.32,9.94l-15.82,8.86c1.48,5.98-1.45,12.48-7.14,14.11ZM179.76,253.08c3.18.55,5.56-2.42,5.75-5.49s-2.44-5.4-5.43-5.52-5.37,2.25-5.41,5.25c-.03,2.48,1.83,5.2,5.09,5.76Z"/>
    <path class="cls-11" d="M290.96,461.81l-7.82-5.77c-.53-.39-.41-.6.03-1.08,2.91.04,5.86-.35,8.91.03,3.4.42,6.28.56,9.39,2.46,1.78,1.08,4.23,1.65,5.46,3.55-.21.58.4,1.5,1.25.94l8.82,10.96-3.78.96c.76,1.13,1.68.67,2.14.9-1.33,1.05-3.07.14-3.8.5-1.06.83-1.76,1.27-2.89,1.49-1.35.26-9.02-9.87-17.71-14.93Z"/>
    <path class="cls-11" d="M197.84,476.76c-.63.28-.72-.24-.88-.29s-.49.27-.75.27l-19.05-21.96c-2.08-2.61-4.17-4.64-6.75-7.02,3.56-1.02,6.95-1.28,10.04-.19,3.62,5.03,10.87,7.63,14.6,14.03,2.59,4.44,1.96,10.26,2.8,15.17Z"/>
    <path class="cls-9" d="M194.83,165.58c-.63,1.31-3.05.39-4.29.21l-12.02-1.69-5.3-.45-6.51-.62-6.38-.49-6-.63-6.94-.5-7.22-.58c-1.17-.09-3.08-.06-3.94-.44l-4.69-6.74c-2.59-2.16-7.01-3.75-10.83-3.22-18.25,2.52-35.69,6.62-53.79,11.84,18.81,3.62,36.57,7.12,54.33,12.5.77-.22,1.65-.49,2.37.19,2.73-.65,6.32-1.32,8.48-3.68l3.42-6.21c2.69.05,5.53.05,8.18.22l9.3.6,8.63.5,6.64.6c1.99.18,4.26.35,6.5.72l20.86,3.39c1.55,5.78,6.89,8.9,12.39,7.72,2.89-.62,4.19-2.11,5.99-4.08-.5,2.36-2.27,4.07-4.99,4.51-1.59.26-2.77,1.1-4.37.78-4.43-.89-8.15-3.31-9.4-8.08l-18.26-3.08c-2.04-.34-4.11-.62-5.95-.77l-7.13-.59-7-.49-8.75-.62-9.67-.5c-4.2-.22-2.23.39-5.91,6.05-2.25,1.68-6.72,4.39-10.07,3.7-19.99-5.16-39.64-10.06-60.09-13.1l20.19-5.39,17.82-4.1,20.11-3.5c3.67-.64,8.61,1.02,11.55,3.53l4.57,6.81,7,.33,6.75.54,7.07.62,6.42.49,6.61.6c1.98.18,4.26.43,6.45.73l17.86,2.35Z"/>
    <path class="cls-23" d="M361,94.59c4.61,6.16,7.55,13.2,10.56,20.28l8.67,20.46c5.92,17.07,9.8,34.49,12.58,52.57.42,2.7.72,4.94.25,7.52l-1.73-7.85c-8.27-23.52-17.42-46.19-28.48-68.53l-18.39-37.14-3.74-8.86c.87-.25.9.32,1.09.78l3.26,7.53,19.47,39.37c10.46,21.15,18.82,42.62,26.98,64.59-2.48-16.81-6.38-32.74-11.53-48.49l-3.42-8.47-10.48-23.8-4.74-8.19c-.4-.69-.97-.94-.36-1.78Z"/>
    <path class="cls-2" d="M128.35,319.53c-1.22.63-3.26-.5-4.36-1.38l17.19-20.34,8.96-7c-2.23,5.38-5.33,9.71-9.12,14.1l-12.66,14.62Z"/>
    <path class="cls-15" d="M220.54,143.04c-.87-.17-1.74-.16-2.84-.72l-5.91-3-17.11-8.34c-1.3-.63-4.39-1.12-4.68-2.89,1.03-3.64-.24-6.25-2.67-8.78-2.76-2.88-5.82-4.12-9.61-5.13l-17.58-4.68-17.41-3.56-4.84-.69-5.54-.62-22.83-.54c1.18.15,2.54-.65,3.67-.64l15.65.12,8.38.69c16,2.51,31.5,6.17,46.57,11.12,1.44.47,2.44,2.1,3.43,2.9,3.14,2.54,4.7,6.13,4.34,10.44l7.34,3.31,20.95,10.33c.35.17.59.46.69.69Z"/>
    <path class="cls-5" d="M283.17,454.96c-.44.47-.56.68-.03,1.08l7.82,5.77c-.52.43-.47.9-.45,1.66-2.43-2.93-5.6-5.63-9.1-7.47-.09-.35.04-1.06.37-1.06l1.4.02Z"/>
    <path class="cls-20" d="M416.72,270l-16.17-6.59-15.12-6.31c-1.43-.6-2.44-.72-3.68.35-6.86,5.91-13.35,12.05-19.31,18.86l.68-2.72c-.4-.91-.1-1.24.94-1.39-.9-.66-.25-1.01.04-.97.39.05.44-.65.23-.79,1.94-2.17,3.24-5.61,3.49-8.58-4.93.64-9.85,2.42-14.3,1.01-1.26-.48-2.92-.06-3.88-.58-6.35-3.43-12.68-6.9-17.98-11.97-5.67-5.43-7.98-15.9-10.36-23.44-3.09-4.44-9.01-6.82-13.32-9.76-.02-.6,1.88-1.44,1.42.06,14.44.97,28.58,4.13,42.83,8l12.73,3.92c.47-1.12,1.68-.62,1.17.58.95-.15.85-.5,1.02-.63s1.28-.03.66,1.09l17.14,4.94c3.42-.39,4.96-6.37,4.24-8.98-.85-3.11-2.33-4.77-4.47-7.57,4.2,2.22,8.15,5.37,10.05,10.08,3.56,8.84,2.79,11.8-1.79,21.18l19.91,16.9,4.17,2.8c1.1.35-.02,1.75-.35.51ZM361.75,246.87c-2.79-.91-5.5-2.02-7.4-4.14-2.18-2.43-4.5-4.15-7.71-5.28-2.05-.72-3.83-2.18-6.2-2.27-.27,4.15,1.65,7.61,4.3,10.39,6.38,6.73,15.94,8.89,24.36,3.69l-7.34-2.39Z"/>
    <path class="cls-20" d="M272.76,188.64l4.7,9.63c.74,1.52,2.02,2.55,2.15,4.36-2.09.99-4.27.87-6.58.02-11.15-4.07-20.15-15.19-16.85-27.5.98-3.65,7.47-11.4,13.04-12.4,7.99,6.07,14.89,12.97,21.66,20.37l8.16,8.92-6.72,7.43-19.55-10.82Z"/>
    <path class="cls-7" d="M289.78,108.64c-.72,2.26-.77,4.35,1.27,5.9-.07-3.02-.27-5.38,1.2-8.31l10.3,12.45c1.95,2.36,3.62,4.85,6.06,6.81-1.48,2.92-3.37,4.67-5.48,6.29l-13.15-15.12-6.68-7.35c-2.35-2.59-4.83-4.52-6.71-7.96,3.64.61.85-3,5.82-7.14l5.54,6.31-5.11,4.45c1.09.46,1.4.9,2.03,2.03,1.33-1.47,2.14-2.81,3.99-3.21-1.07,1.29-2.23,2-2.68,3.28.77.11,1.11-.42,1.17-.59.12-.34.94-.68.9.17-.03.57.44.56.6.28l.68-1.2c.28-.49.18-.83,0-1.07-.2-.27.57-.97,1.02-.69.28.18.48.43,1.22,1.27-1.61.46-1.56,2.03-1.99,3.39Z"/>
    <path class="cls-26" d="M215.65,92.86c4.51,5.74,10.11,9.54,14.39,15.84l-26.99-11.23c1.35-3.25,2.89-6.11,4.12-9.73,3.18,1.61,6.29,2.7,8.48,5.12Z"/>
    <polygon class="cls-27" points="245.44 122.33 239.21 117.14 244.58 110.61 250.63 115.84 245.44 122.33"/>
    <path class="cls-28" d="M213.1,90.29c-.62-.35-.95-1.8-.52-1.95.49-.17,1.12.41,1.36.73.34.45-.33,1.51-.84,1.22Z"/>
    <polygon class="cls-13" points="335.41 122.99 330.94 117.52 337.22 112.67 341.82 117.99 335.41 122.99"/>
    <path class="cls-16" d="M183.4,122.53c2.56,2.01,2.73,6.5,1.12,8.94-2.12,3.21-6.03,3.26-8.9,1.41s-3.43-6.05-1.68-8.8c1.86-2.93,6.12-4.18,9.47-1.55Z"/>
    <path class="cls-25" d="M210.51,163.01c2.19,1.88,2.58,5.13,1.38,7.83-.9,2.03-3.29,4.39-5.95,4.07-3.63-.44-5.94-2.8-6.45-5.74-.58-3.36,1.03-6.43,4.41-7.66,1.98-.72,4.92.03,6.62,1.5Z"/>
    <path class="cls-25" d="M129.81,165.34c-1.18,3.02-4.21,4.16-6.97,3.74-2.39-.37-4.96-2.25-5.36-5.11s.64-5.7,2.8-7.03c2.51-1.54,5.4-1.23,7.81.57,1.95,1.45,2.9,4.84,1.73,7.84Z"/>
    <path class="cls-12" d="M140.47,229.69c-1.98,3.34-6.42,4.25-9.93,2.99s-5.81-5.05-5.18-9.31c.77-5.16,6.27-7.59,10.9-5.96s6.95,7.65,4.21,12.27Z"/>
    <path class="cls-1" d="M91.03,268.12l1.49-1.41c.51.67.25,1.53-.08,1.68-.41.19-1.2.08-1.41-.27Z"/>
    <path class="cls-18" d="M103.44,311.99c-.41,2.79-2.79,4.22-4.82,4.29-2.65.1-4.96-1.23-5.5-4.02-.67-3.44,1.6-6.68,4.9-6.68s6.01,2.46,5.42,6.41Z"/>
    <path class="cls-25" d="M179.76,253.08c-3.26-.56-5.12-3.28-5.09-5.76.03-3,2.56-5.37,5.41-5.25s5.62,2.31,5.43,5.52-2.56,6.04-5.75,5.49Z"/>
  </g>
</svg>