<svg viewBox="0 0 440 340" width="440" height="340" xmlns="http://www.w3.org/2000/svg" style="display: block;">
  <defs>
    <radialGradient id="eyeGlow" cx="50%" cy="50%" r="50%">
      <stop offset="0%" stop-color="#ffcde0" />
      <stop offset="40%" stop-color="#ff2e88" />
      <stop offset="100%" stop-color="#8a0040" stop-opacity="0" />
    </radialGradient>
    <linearGradient id="bodyGrad" x1="0" y1="0" x2="0" y2="1">
      <stop offset="0%" stop-color="#161524" />
      <stop offset="100%" stop-color="#070612" />
    </linearGradient>
    <radialGradient id="floorGrad" cx="50%" cy="50%" r="50%">
      <stop offset="0%" stop-color="#ff2e88" stop-opacity="0.18" />
      <stop offset="100%" stop-color="#ff2e88" stop-opacity="0" />
    </radialGradient>
  </defs>
  <ellipse cx="220" cy="300" rx="170" ry="20" fill="url(#floorGrad)" />
  <ellipse cx="220" cy="305" rx="140" ry="6" fill="#000" opacity="0.55" />
  <g stroke="#ff2e88" stroke-width="2.6" stroke-linecap="round" fill="none">
    <line class="quill" x1="108" y1="168" x2="56" y2="92" />
    <line class="quill" x1="140" y1="148" x2="120" y2="52" />
    <line class="quill" x1="178" y1="132" x2="186" y2="28" />
    <line class="quill" x1="222" y1="126" x2="240" y2="22" />
    <line class="quill" x1="266" y1="130" x2="292" y2="36" />
    <line class="quill" x1="306" y1="142" x2="344" y2="58" />
    <line class="quill" x1="340" y1="162" x2="386" y2="96" />
  </g>
  <path d="M 108 232 C 108 188, 148 158, 198 154 C 232 152, 266 152, 300 160 C 338 170, 360 194, 362 232 C 362 260, 346 278, 316 282 L 146 282 C 120 282, 104 262, 108 232 Z" fill="url(#bodyGrad)" stroke="#2a2835" stroke-width="1.4" />
  <path d="M 108 234 C 82 232, 64 244, 60 260 C 58 274, 70 282, 90 282 C 108 282, 122 276, 134 268 L 128 240 Z" fill="#0b0a12" stroke="#2a2835" stroke-width="1.4" />
  <circle cx="64" cy="262" r="4.5" fill="#ff2e88" />
  <circle cx="64" cy="262" r="1.6" fill="#0f0e0b" />
  <path d="M 80 272 C 90 272, 100 271, 108 270" stroke="#2a2835" stroke-width="1.3" stroke-linecap="round" fill="none" />
  <circle cx="122" cy="232" r="22" fill="url(#eyeGlow)" opacity="0.7" />
  <circle cx="122" cy="232" r="9.5" fill="#ebe7da" />
  <circle class="eye-blink" cx="122" cy="232" r="6" fill="#ff2e88" />
  <circle cx="122" cy="232" r="2.8" fill="#0f0e0b" />
  <circle cx="124.4" cy="229.6" r="1.3" fill="#ebe7da" />
  <path d="M 104 214 C 120 210, 138 212, 146 216" stroke="#ebe7da" stroke-width="1.6" stroke-linecap="round" fill="none" opacity="0.5" />
  <rect x="170" y="282" width="26" height="12" fill="#0b0a12" stroke="#2a2835" stroke-width="1.1" />
  <rect x="284" y="282" width="26" height="12" fill="#0b0a12" stroke="#2a2835" stroke-width="1.1" />
  <g opacity="0.35" transform="translate(236, 222)">
    <rect x="-22" y="-7" width="44" height="14" fill="none" stroke="#ff2e88" stroke-width="0.7" stroke-dasharray="2 3" />
    <text x="0" y="3" text-anchor="middle" font-family="JetBrains Mono, monospace" font-size="7" fill="#ff2e88" letter-spacing="1.6">PROOF · 0x8A</text>
  </g>
</svg>
