<?xml version="1.0" encoding="UTF-8"?>
<svg id="Layer_1" xmlns="http://www.w3.org/2000/svg" xmlns:xlink="http://www.w3.org/1999/xlink" version="1.1" viewBox="0 0 440 340">
  <!-- Generator: Adobe Illustrator 30.3.0, SVG Export Plug-In . SVG Version: 2.1.3 Build 182)  -->
  <defs>
    <style>
      .st0 {
        opacity: .55;
      }

      .st0, .st1, .st2, .st3 {
        isolation: isolate;
      }

      .st4 {
        stroke-width: 1.3px;
      }

      .st4, .st5, .st6, .st7 {
        stroke: #2a2835;
      }

      .st4, .st8, .st9, .st3 {
        fill: none;
      }

      .st4, .st9, .st3 {
        stroke-linecap: round;
      }

      .st10 {
        fill: url(#radial-gradient);
      }

      .st11, .st2 {
        fill: #ff2e88;
      }

      .st5 {
        fill: url(#linear-gradient);
      }

      .st5, .st6 {
        stroke-width: 1.4px;
      }

      .st8 {
        stroke-dasharray: 2 3;
        stroke-width: .7px;
      }

      .st8, .st9 {
        stroke: #ff2e88;
      }

      .st1 {
        fill: url(#radial-gradient1);
        opacity: .7;
      }

      .st12 {
        fill: #ebe7da;
      }

      .st9 {
        stroke-width: 2.6px;
      }

      .st13 {
        opacity: .35;
      }

      .st2 {
        font-family: CourierNewPSMT, 'Courier New';
        font-size: 7px;
        letter-spacing: .23em;
      }

      .st14 {
        fill: #0f0e0b;
      }

      .st6, .st7 {
        fill: #0b0a12;
      }

      .st7 {
        stroke-width: 1.1px;
      }

      .st3 {
        opacity: .5;
        stroke: #ebe7da;
        stroke-width: 1.6px;
      }
    </style>
    <radialGradient id="radial-gradient" cx="-776.21" cy="1149.78" fx="-776.21" fy="1149.78" r=".5" gradientTransform="translate(264131 46291) scale(340 -40)" gradientUnits="userSpaceOnUse">
      <stop offset="0" stop-color="#ff2e88" stop-opacity=".18"/>
      <stop offset="1" stop-color="#ff2e88" stop-opacity="0"/>
    </radialGradient>
    <linearGradient id="linear-gradient" x1="-775.44" y1="1164.58" x2="-775.44" y2="1163.58" gradientTransform="translate(197669.89 150513) scale(254.61 -129.11)" gradientUnits="userSpaceOnUse">
      <stop offset="0" stop-color="#161524"/>
      <stop offset="1" stop-color="#070612"/>
    </linearGradient>
    <radialGradient id="radial-gradient1" cx="-760.8" cy="1151.66" fx="-760.8" fy="1151.66" r=".5" gradientTransform="translate(33597 50905) scale(44 -44)" gradientUnits="userSpaceOnUse">
      <stop offset="0" stop-color="#ffcde0"/>
      <stop offset=".4" stop-color="#ff2e88"/>
      <stop offset="1" stop-color="#8a0040" stop-opacity="0"/>
    </radialGradient>
  </defs>
  <ellipse class="st10" cx="220" cy="300" rx="170" ry="20"/>
  <ellipse class="st0" cx="220" cy="305" rx="140" ry="6"/>
  <g>
    <line class="st9" x1="108" y1="168" x2="56" y2="92"/>
    <line class="st9" x1="140" y1="148" x2="120" y2="52"/>
    <line class="st9" x1="178" y1="132" x2="186" y2="28"/>
    <line class="st9" x1="222" y1="126" x2="240" y2="22"/>
    <line class="st9" x1="266" y1="130" x2="292" y2="36"/>
    <line class="st9" x1="306" y1="142" x2="344" y2="58"/>
    <line class="st9" x1="340" y1="162" x2="386" y2="96"/>
  </g>
  <path class="st5" d="M108,232c0-44,40-74,90-78,34-2,68-2,102,6,38,10,60,34,62,72,0,28-16,46-46,50h-170c-26,0-42-20-38-50Z"/>
  <path class="st6" d="M108,234c-26-2-44,10-48,26-2,14,10,22,30,22,18,0,32-6,44-14l-6-28-20-6Z"/>
  <circle class="st11" cx="64" cy="262" r="4.5"/>
  <circle class="st14" cx="64" cy="262" r="1.6"/>
  <path class="st4" d="M80,272c10,0,20-1,28-2"/>
  <circle class="st1" cx="122" cy="232" r="22"/>
  <circle class="st12" cx="122" cy="232" r="9.5">
    <animate accumulate="none" additive="replace" attributeName="ry" calcMode="linear" dur="7.5s" fill="remove" keyTimes="0;0.46;0.5;0.54;1" repeatCount="indefinite" restart="always" values="9.5;9.5;1.1;9.5;9.5"/>
  </circle>
  <circle class="st11" cx="122" cy="232" r="6">
    <animate accumulate="none" additive="replace" attributeName="ry" calcMode="linear" dur="7.5s" fill="remove" keyTimes="0;0.46;0.5;0.54;1" repeatCount="indefinite" restart="always" values="6;6;0.7;6;6"/>
  </circle>
  <circle class="st14" cx="122" cy="232" r="2.8">
    <animate accumulate="none" additive="replace" attributeName="ry" calcMode="linear" dur="7.5s" fill="remove" keyTimes="0;0.46;0.5;0.54;1" repeatCount="indefinite" restart="always" values="2.8;2.8;0.45;2.8;2.8"/>
  </circle>
  <circle class="st12" cx="124.4" cy="229.6" r="1.3">
    <animate accumulate="none" additive="replace" attributeName="ry" calcMode="linear" dur="7.5s" fill="remove" keyTimes="0;0.46;0.5;0.54;1" repeatCount="indefinite" restart="always" values="1.3;1.3;0.25;1.3;1.3"/>
  </circle>
  <path class="st3" d="M104,214c16-4,34-2,42,2"/>
  <rect class="st7" x="170" y="282" width="26" height="12"/>
  <rect class="st7" x="284" y="282" width="26" height="12"/>
  <g class="st13">
    <rect class="st8" x="214" y="215" width="44" height="14"/>
    <text class="st2" transform="translate(201.2 225)"><tspan x="0" y="0">PROOF · 0x8A</tspan></text>
  </g>
</svg>